<svg xmlns="http://www.w3.org/2000/svg" viewBox="0 0 512 512" width="64px" height="64px"><path fill="#4ABC96" d="M7.9,256C7.9,119,119,7.9,256,7.9C393,7.9,504.1,119,504.1,256c0,137-111.1,248.1-248.1,248.1C119,504.1,7.9,393,7.9,256z"/><path fill="#357180" d="M59.3 139.9v-19.6H48.4c-3.9 6-7.7 12.2-11.1 18.6L59.3 139.9zM183.4 135.5L183.4 120.3 91.4 120.3 91.4 139.9zM358.8 120.3H251.2v12l83.4-4v12.3h10.7v346.7c7.3-2.8 14.5-6 21.5-9.5V128.2C366.8 123.9 363.2 120.3 358.8 120.3z"/><path fill="#27636D" d="M75 140.7L91.4 139.9 91.4 120.3 59.3 120.3 59.3 139.9z"/><path fill="#D7D7BF" d="M345.3,487.4V140.7h-10.7v350.6C338.2,490.1,341.8,488.8,345.3,487.4z"/><path fill="#E7E7D6" d="M59.3 140.7v-.8l-22-1c-.3.6-.6 1.2-.9 1.8H59.3zM59.9 140.7L75 140.7 59.3 139.9 59.3 140.7zM36.4 140.7c-7.3 13.9-13.3 28.5-17.9 43.8l27.7.9c4.7.2 8.5 4.2 8.5 9.1 0 4.9-3.8 8.7-8.5 8.5l-32.2-1c-1.3 6-2.5 12.1-3.4 18.3l35.6 1.1c4.7.2 8.5 4.2 8.5 9.1 0 4.9-3.8 8.7-8.5 8.5l-37.4-1.2c-.4 5.8-.7 11.6-.7 17.4l38.2 1.2c4.7.1 8.5 4.2 8.5 9.1 0 4.9-3.8 8.7-8.5 8.5l-37.5-1.2c.4 6.2 1 12.4 1.9 18.5l35.6 1.1c4.7.2 8.5 4.2 8.5 9.1 0 4.9-3.8 8.7-8.5 8.5l-32.4-1c1.4 6.5 3.1 12.9 5 19.1l27.5.9c4.7.2 8.5 4.2 8.5 9.1 0 4.9-3.8 8.7-8.5 8.5l-21.2-.7c2.5 6.4 5.2 12.6 8.2 18.7l13.1.4c4.7.2 8.5 4.2 8.5 9.1 0 4.9-3.8 8.7-8.5 8.5l-3.4-.1c5 8.5 10.6 16.6 16.6 24.4V140.7H36.4z"/><path fill="#E7E7D6" d="M59.9 140.7h-.6v266.4c.2.2.4.5.6.7V140.7zM59.9 407.8c4.4 5.6 8.9 11.1 13.7 16.3V149.5H75v-8.9H59.9V407.8zM183.4 140.7L183.4 135.5 91.4 139.9 91.4 140.7zM334.6 140.7L334.6 128.4 251.2 132.3 251.2 140.7zM91.4 140.7L91.4 139.9 75 140.7 90.8 140.7zM232.9 361.1L224 342.9 214.9 343.2 204.2 362zM183.7 397.7L249.9 395.6 241.5 378.4 193.9 380z"/><path fill="#E7E7D6" d="M251.2,180.7l54.5-1.7c4.7-0.2,8.5,3.7,8.5,8.5c0,4.9-3.8,8.9-8.5,9.1l-54.5,1.7v18.5l54.5-1.7c4.7-0.2,8.5,3.7,8.5,8.5c0,4.9-3.8,8.9-8.5,9.1l-54.5,1.7v17.4l54.5-1.7c4.7-0.2,8.5,3.7,8.5,8.5c0,4.9-3.8,8.9-8.5,9.1l-54.5,1.7v18.5l54.5-1.7c4.7-0.2,8.5,3.7,8.5,8.5c0,4.9-3.8,8.9-8.5,9.1l-54.5,1.7v19l54.5-1.7c4.7-0.2,8.5,3.7,8.5,8.5c0,4.9-3.8,8.9-8.5,9.1l-54.5,1.7v18.5l54.5-1.7c4.7-0.2,8.5,3.7,8.5,8.5c0,4.9-3.8,8.9-8.5,9.1l-54.5,1.7v17.5l54.5-1.7c4.7-0.2,8.5,3.7,8.5,8.5c0,4.9-3.8,8.9-8.5,9.1l-200.4,6.4c-4.7,0.2-8.5-3.7-8.5-8.5c0-4.9,3.8-8.9,8.5-9.1l78.1-2.5v-17.5l-78.1,2.5c-4.7,0.2-8.5-3.7-8.5-8.5c0-4.9,3.8-8.9,8.5-9.1l78.1-2.5v-18.5l-78.1,2.5c-4.7,0.2-8.5-3.7-8.5-8.5c0-4.9,3.8-8.9,8.5-9.1l78.1-2.5v-19l-78.1,2.5c-4.7,0.2-8.5-3.7-8.5-8.5c0-4.9,3.8-8.9,8.5-9.1l78.1-2.5v-18.5l-78.1,2.5c-4.7,0.2-8.5-3.7-8.5-8.5c0-4.9,3.8-8.9,8.5-9.1l78.1-2.5v-17.4l-78.1,2.5c-4.7,0.2-8.5-3.7-8.5-8.5c0-4.9,3.8-8.9,8.5-9.1l78.1-2.5v-18.5l-78.1,2.5c-4.7,0.2-8.5-3.7-8.5-8.5c0-4.9,3.8-8.9,8.5-9.1l78.1-2.5v-42.2h-92v300.9c1.8,1.6,3.7,3.2,5.5,4.8c0-0.3-0.1-0.6-0.1-1c0-4.9,3.8-8.9,8.5-9.1l200.4-6.4c4.7-0.2,8.5,3.7,8.5,8.5c0,4.9-3.8,8.9-8.5,9.1l-199.4,6.4c41.6,31.5,93.4,50.2,149.6,50.2c27.5,0,53.9-4.5,78.6-12.8V140.7h-83.4V180.7z"/><path fill="#E7E7D6" d="M90.8 441c.2.2.4.3.6.5V140.7h-.6V441zM77.1 149.5v278.2c4.4 4.6 9 9 13.7 13.3V140.7H75v8.9H77.1z"/><path fill="#DCDDD8" d="M75 149.5h-1.4v274.6c.5.5.9 1 1.4 1.5V149.5zM77.1 427.8V149.5H75v276C75.7 426.3 76.4 427 77.1 427.8z"/><path fill="#B9B9BA" d="M54.6 194.4c0-4.9-3.8-8.9-8.5-9.1l-27.7-.9c-1.7 5.7-3.2 11.6-4.5 17.5l32.2 1C50.8 203.1 54.6 199.3 54.6 194.4zM54.6 230.5c0-4.9-3.8-8.9-8.5-9.1l-35.6-1.1c-.8 5.8-1.4 11.7-1.9 17.6l37.4 1.2C50.8 239.2 54.6 235.4 54.6 230.5zM54.6 265.6c0-4.9-3.8-8.9-8.5-9.1l-38.2-1.2c0 .3 0 .5 0 .7 0 5.7.3 11.3.6 16.9l37.5 1.2C50.8 274.3 54.6 270.4 54.6 265.6zM54.6 301.6c0-4.9-3.8-8.9-8.5-9.1l-35.6-1.1c.9 6 1.9 11.9 3.2 17.7l32.4 1C50.8 310.3 54.6 306.5 54.6 301.6zM54.6 338.2c0-4.9-3.8-8.9-8.5-9.1l-27.5-.9c1.8 6 3.9 12 6.2 17.8l21.2.7C50.8 346.9 54.6 343.1 54.6 338.2zM54.6 374.3c0-4.9-3.8-8.9-8.5-9.1L33 364.8c3 6.1 6.2 12.1 9.7 17.9l3.4.1C50.8 382.9 54.6 379.1 54.6 374.3zM105.3 185.4c-4.7.2-8.5 4.2-8.5 9.1 0 4.9 3.8 8.7 8.5 8.5l78.1-2.5v-17.6L105.3 185.4zM305.8 196.6c4.7-.2 8.5-4.2 8.5-9.1 0-4.9-3.8-8.7-8.5-8.5l-54.5 1.7v17.6L305.8 196.6zM305.8 232.6c4.7-.2 8.5-4.2 8.5-9.1 0-4.9-3.8-8.7-8.5-8.5l-54.5 1.7v17.6L305.8 232.6zM105.3 221.4c-4.7.2-8.5 4.2-8.5 9.1 0 4.9 3.8 8.7 8.5 8.5l78.1-2.5v-17.6L105.3 221.4zM105.3 256.5c-4.7.1-8.5 4.2-8.5 9.1 0 4.9 3.8 8.7 8.5 8.5l78.1-2.5V254L105.3 256.5zM305.8 267.7c4.7-.2 8.5-4.2 8.5-9.1 0-4.9-3.8-8.7-8.5-8.5l-54.5 1.7v17.6L305.8 267.7zM305.8 303.8c4.7-.2 8.5-4.2 8.5-9.1 0-4.9-3.8-8.7-8.5-8.5l-54.5 1.7v17.6L305.8 303.8zM105.3 292.6c-4.7.2-8.5 4.2-8.5 9.1 0 4.9 3.8 8.7 8.5 8.5l78.1-2.5v-17.6L105.3 292.6zM305.8 340.3c4.7-.2 8.5-4.2 8.5-9.1 0-4.9-3.8-8.7-8.5-8.5l-54.5 1.7v17.6L305.8 340.3zM105.3 329.1c-4.7.2-8.5 4.2-8.5 9.1 0 4.9 3.8 8.7 8.5 8.5l78.1-2.5v-17.6L105.3 329.1zM219.9 334.6L214.9 343.2 224 342.9zM305.8 376.4c4.7-.2 8.5-4.2 8.5-9.1 0-4.9-3.8-8.7-8.5-8.5l-54.5 1.7v17.6L305.8 376.4zM105.3 365.2c-4.7.2-8.5 4.2-8.5 9.1 0 4.9 3.8 8.7 8.5 8.5l78.1-2.5v-17.6L105.3 365.2zM193.9 380L241.5 378.4 232.9 361.1 204.2 362zM249.9 395.6l-66.2 2.1-.3.5v-.5l-78.1 2.5c-4.7.1-8.5 4.2-8.5 9.1 0 4.9 3.8 8.7 8.5 8.5l200.4-6.4c4.7-.2 8.5-4.2 8.5-9.1 0-4.9-3.8-8.7-8.5-8.5l-54.5 1.7v2.6L249.9 395.6zM105.3 453.9l1.1 0c-3.2-2.4-6.4-4.9-9.4-7.5C97.4 450.7 101 454.1 105.3 453.9z"/><path fill="#B9B9BA" d="M305.8,447.5c4.7-0.2,8.5-4.2,8.5-9.1c0-4.9-3.8-8.7-8.5-8.5l-200.4,6.4c-4.7,0.2-8.5,4.2-8.5,9.1c0,0.3,0.1,0.6,0.1,1c3.1,2.6,6.2,5.1,9.4,7.5L305.8,447.5z"/><path fill="#BB5538" d="M183.4 120.2H251.2V120.4H183.4z"/><path fill="#BB5538" d="M251.2 132.3L251.2 120.3 183.4 120.3 183.4 135.5z"/><path fill="#BB5538" d="M183.4 140.7L251.2 140.7 251.2 132.3 183.4 135.5zM214.9 343.2L183.4 344.2 183.4 362.7 204.2 362zM251.2 180.7L251.2 140.7 183.4 140.7 183.4 182.9zM183.4 254L251.2 251.8 251.2 234.4 183.4 236.6zM183.4 290.1L251.2 287.9 251.2 269.4 183.4 271.6zM183.4 218.9L251.2 216.8 251.2 198.3 183.4 200.5zM232.9 361.1L251.2 360.5 251.2 342.1 224 342.9zM193.9 380L183.4 380.3 183.4 397.7 183.7 397.7zM183.4 326.6L251.2 324.5 251.2 305.5 183.4 307.7zM249.9 395.6L251.2 395.6 251.2 378.1 241.5 378.4z"/><path fill="#BB5538" d="M183.4 200.5L251.2 198.3 251.2 180.7 183.4 182.9zM183.4 236.6L251.2 234.4 251.2 216.8 183.4 218.9zM183.4 271.6L251.2 269.4 251.2 251.8 183.4 254zM183.4 307.7L251.2 305.5 251.2 287.9 183.4 290.1zM183.4 344.2L214.9 343.2 219.9 334.6 224 342.9 251.2 342.1 251.2 324.5 183.4 326.6zM241.5 378.4L251.2 378.1 251.2 360.5 232.9 361.1zM204.2 362L183.4 362.7 183.4 380.3 193.9 380zM183.7 397.7L183.4 397.7 183.4 398.2zM251.2 398.2L251.2 395.6 249.9 395.6z"/></svg>